<?xml version="1.0" encoding="UTF-8" standalone="no"?><!DOCTYPE svg PUBLIC "-//W3C//DTD SVG 1.1//EN" "http://www.w3.org/Graphics/SVG/1.1/DTD/svg11.dtd"><svg width="100%" height="100%" viewBox="0 0 144 49" version="1.1" xmlns="http://www.w3.org/2000/svg" xmlns:xlink="http://www.w3.org/1999/xlink" xml:space="preserve" xmlns:serif="http://www.serif.com/" style="fill-rule:evenodd;clip-rule:evenodd;stroke-linecap:round;stroke-linejoin:round;stroke-miterlimit:1.5;"><path d="M109.435,21.502c-0,-0.122 -0.099,-0.22 -0.22,-0.22l-74.435,-0c-0.121,-0 -0.22,0.098 -0.22,0.22l0,0.439c0,0.121 0.099,0.22 0.22,0.22l74.435,-0c0.121,-0 0.22,-0.099 0.22,-0.22l-0,-0.439Z" style="fill:#004d4b;stroke:#9eecec;stroke-width:0.04px;"/><g transform="matrix(0.041049,0,0,0.041049,-5.01053,-4.87658)"><g transform="matrix(466.667,0,0,466.667,1464.93,556.747)"><path d="M0.155,-0.065l0.161,-0c0.066,-0 0.115,-0.016 0.148,-0.047c0.032,-0.03 0.049,-0.077 0.049,-0.138l-0,-0.209c-0,-0.062 -0.017,-0.109 -0.049,-0.139c-0.033,-0.031 -0.082,-0.047 -0.148,-0.047l-0.161,0l0,-0.065l0.158,0c0.06,0 0.11,0.009 0.15,0.028c0.04,0.019 0.07,0.047 0.09,0.085c0.02,0.038 0.03,0.085 0.03,0.141l0,0.202c0,0.056 -0.01,0.103 -0.03,0.141c-0.02,0.038 -0.05,0.066 -0.09,0.085c-0.04,0.019 -0.09,0.028 -0.151,0.028l-0.157,-0l0,-0.065Zm-0.067,-0.645l0.07,0l0,0.71l-0.07,-0l-0,-0.71Z" style="fill:#004d4b;fill-rule:nonzero;"/></g><g transform="matrix(466.667,0,0,466.667,1771.18,556.747)"><path d="M0.389,-0.321c-0,-0.041 -0.011,-0.073 -0.033,-0.096c-0.022,-0.022 -0.053,-0.034 -0.094,-0.034c-0.024,0 -0.047,0.004 -0.071,0.012c-0.023,0.008 -0.043,0.019 -0.061,0.033l-0.051,-0.035c0.019,-0.023 0.044,-0.041 0.076,-0.054c0.031,-0.013 0.066,-0.019 0.104,-0.019c0.042,-0 0.078,0.007 0.108,0.022c0.03,0.015 0.053,0.036 0.069,0.065c0.015,0.028 0.023,0.062 0.023,0.101l-0,0.326l-0.07,-0l-0,-0.321Zm-0.149,0.328c-0.059,0 -0.105,-0.013 -0.137,-0.041c-0.033,-0.027 -0.049,-0.066 -0.049,-0.115c-0,-0.048 0.015,-0.085 0.044,-0.111c0.03,-0.027 0.072,-0.04 0.127,-0.04l0.168,0l0.007,0.066l-0.175,-0c-0.032,-0 -0.058,0.007 -0.075,0.022c-0.018,0.015 -0.027,0.036 -0.027,0.063c0,0.028 0.011,0.05 0.033,0.066c0.023,0.016 0.054,0.024 0.095,0.024c0.044,-0 0.077,-0.004 0.102,-0.013c0.024,-0.009 0.036,-0.021 0.036,-0.037l0.01,0.066c-0.01,0.01 -0.023,0.019 -0.039,0.027c-0.016,0.008 -0.034,0.014 -0.054,0.017c-0.02,0.004 -0.042,0.006 -0.066,0.006Z" style="fill:#004d4b;fill-rule:nonzero;"/></g><g transform="matrix(466.667,0,0,466.667,2019.55,556.747)"><path d="M0.078,-0.507l0.07,0l0,0.507l-0.07,-0l0,-0.507Zm0.337,0.2c0,-0.045 -0.012,-0.08 -0.035,-0.105c-0.024,-0.024 -0.057,-0.037 -0.1,-0.037c-0.042,0 -0.074,0.011 -0.097,0.033c-0.023,0.022 -0.035,0.053 -0.035,0.094l-0.01,-0.098c0.018,-0.033 0.042,-0.057 0.071,-0.072c0.03,-0.015 0.064,-0.022 0.103,-0.022c0.056,-0 0.098,0.018 0.128,0.054c0.03,0.036 0.045,0.087 0.045,0.152l0,0.308l-0.07,-0l0,-0.307Z" style="fill:#004d4b;fill-rule:nonzero;"/></g><path d="M1505.95,559.026l104.818,-0c28.495,-0 52.208,-4.501 71.154,-13.434c19.149,-9.03 33.505,-22.543 43.08,-40.524c9.495,-17.833 14.281,-40.173 14.281,-67.038c-0,-0 -0,-93.88 -0,-93.88c-0,-26.86 -4.745,-49.235 -14.162,-67.141c-9.5,-18.066 -23.822,-31.583 -42.978,-40.538c-18.944,-8.856 -42.655,-13.317 -71.147,-13.317l-105.046,0c-1.258,0 -2.278,1.02 -2.278,2.278l-0,331.315c-0,1.259 1.02,2.279 2.278,2.279Zm32.812,-2.279l0,-30.533l73.601,-0c30.686,-0 53.662,-7.178 68.929,-21.534c15.267,-14.355 22.9,-35.964 22.9,-64.827l0,-97.526c0,-28.863 -7.633,-50.472 -22.9,-64.828c-15.267,-14.355 -38.243,-21.533 -68.929,-21.533l-73.601,0l0,-30.534l72.234,0c28.103,0 51.497,4.368 70.182,13.103c18.685,8.734 32.66,21.912 41.927,39.534c9.266,17.622 13.9,39.648 13.9,66.081l-0,93.88c-0,26.432 -4.672,48.421 -14.014,65.967c-9.342,17.545 -23.356,30.723 -42.041,39.534c-18.685,8.811 -42.079,13.216 -70.182,13.216l-72.006,0Zm-32.812,-331.315l31.445,0l0,30.534l1.367,0l0,270.248l-1.367,-0l0,30.533l-31.445,0l-0,-331.315Zm35.091,298.503l71.322,0c29.974,0 52.455,-6.892 67.368,-20.914c14.866,-13.979 22.183,-35.063 22.183,-63.168l-0,-97.526c-0,-28.106 -7.317,-49.189 -22.183,-63.168c-14.913,-14.023 -37.394,-20.915 -67.368,-20.915l-71.322,0l-0,265.691Z" style="fill:#004d4c;"/><path d="M1950.28,414.56l-74.284,0c-26.029,0 -46.146,6.364 -60.408,18.911c-14.366,12.639 -21.623,30.47 -21.623,53.55c0,24.005 7.91,42.569 23.6,55.748c15.543,13.057 37.433,19.675 65.723,19.675c11.091,-0 21.45,-0.927 31.077,-2.776c9.707,-1.863 18.324,-4.626 25.857,-8.276c3.673,-1.78 7.026,-3.717 10.058,-5.81l0,11.165c0,1.259 1.02,2.279 2.279,2.279l32.812,-0c1.258,-0 2.278,-1.02 2.278,-2.279l0,-151.985c0,-18.967 -3.761,-35.168 -11.223,-48.616c-7.518,-13.546 -18.475,-23.889 -32.883,-31.014c-14.258,-7.052 -31.377,-10.604 -51.369,-10.604c-18.242,-0 -34.821,3.064 -49.74,9.17c-15.031,6.153 -27.132,14.772 -36.322,25.832c-0.409,0.492 -0.592,1.135 -0.504,1.77c0.088,0.634 0.44,1.202 0.968,1.565l23.926,16.406c0.827,0.567 1.928,0.527 2.712,-0.1c8.152,-6.522 17.493,-11.558 28.017,-15.116c10.547,-3.565 21.318,-5.348 32.311,-5.348c18.117,-0 32.139,4.991 42.001,15.145c9.882,10.175 14.737,24.515 14.737,42.961l0,7.747Zm2.279,126.488c1.724,-1.389 3.319,-2.839 4.785,-4.353l-4.785,-30.989l-0,35.342c-3.813,3.07 -8.256,5.835 -13.331,8.294c-7.367,3.57 -15.798,6.266 -25.292,8.089c-9.495,1.823 -19.711,2.734 -30.648,2.734c-27.648,0 -49.067,-6.38 -64.258,-19.14c-15.191,-12.761 -22.787,-30.762 -22.787,-54.004c0,-22.331 6.95,-39.611 20.85,-51.839c13.9,-12.229 33.534,-18.343 58.903,-18.343l76.563,-0l-0,-10.026c-0,-19.141 -5.127,-33.99 -15.381,-44.548c-10.254,-10.558 -24.8,-15.837 -43.636,-15.837c-11.242,0 -22.255,1.823 -33.041,5.469c-10.785,3.646 -20.356,8.811 -28.711,15.495l-23.925,-16.406c8.962,-10.786 20.773,-19.179 35.433,-25.179c14.659,-6.001 30.951,-9.001 48.876,-9.001c19.597,-0 36.383,3.456 50.359,10.368c13.975,6.912 24.609,16.938 31.901,30.078c7.291,13.14 10.937,28.977 10.937,47.51l0,151.985l-32.812,0l-0,-15.699Zm2.278,-5.659l-0,0.595l0.08,-0.077l-0.08,-0.518Zm-2.278,-118.55l2.05,-0l3.19,30.533l-5.24,0l-0,58.334c-0,7.443 -5.621,13.216 -16.862,17.317c-11.242,4.102 -27.04,6.153 -47.396,6.153c-18.989,-0 -33.686,-3.684 -44.092,-11.052c-10.406,-7.367 -15.609,-17.735 -15.609,-31.103c0,-12.609 4.14,-22.369 12.419,-29.281c8.279,-6.912 20.014,-10.368 35.205,-10.368l76.335,0l-0,-30.533Zm-2.279,32.812l-74.056,-0c-14.549,-0 -25.816,3.218 -33.745,9.838c-7.777,6.493 -11.6,15.688 -11.6,27.532c-0,12.564 4.867,22.319 14.646,29.244c10.091,7.144 24.363,10.632 42.776,10.632c20.018,0 35.56,-1.98 46.615,-6.014c10.044,-3.665 15.364,-8.526 15.364,-15.177l0,-56.055Zm4.557,-8.71l-0,4.153l0.434,0l-0.434,-4.153Z" style="fill:#004d4c;"/><path d="M2091.1,345.827l-0,-25.603c-0,-1.258 -1.02,-2.278 -2.278,-2.278l-32.813,-0c-1.258,-0 -2.278,1.02 -2.278,2.278l-0,236.523c-0,1.259 1.02,2.279 2.278,2.279l32.813,-0c1.258,-0 2.278,-1.02 2.278,-2.279l-0,-150.39c-0,-18.113 5.064,-32.131 15.362,-41.991c10.329,-9.89 24.901,-14.748 43.655,-14.748c19.33,0 34.333,5.483 44.95,16.612c10.652,11.166 15.89,26.916 15.89,47.191l0,143.326c0,1.259 1.02,2.279 2.279,2.279l32.812,-0c1.258,-0 2.278,-1.02 2.278,-2.279l0,-143.554c0,-31.328 -7.263,-55.533 -21.608,-72.67c-14.471,-17.286 -34.896,-25.995 -61.334,-25.995c-18.617,-0 -34.98,3.549 -49.098,10.608c-9.699,4.849 -18.099,11.743 -25.186,20.691Zm-2.278,60.53l-0,150.39l-32.813,0l0,-236.523l32.813,-0l-0,32.6c-1.686,2.515 -3.28,5.168 -4.786,7.96l4.786,45.573l-0,-53.533c7.655,-11.433 17.15,-19.984 28.483,-25.65c13.823,-6.912 29.85,-10.368 48.079,-10.368c25.673,-0 45.535,8.393 59.587,25.179c14.051,16.786 21.077,40.522 21.077,71.208l0,143.554l-32.812,0l-0,-143.326c-0,-20.964 -5.507,-37.218 -16.521,-48.763c-11.013,-11.546 -26.546,-17.318 -46.598,-17.318c-19.444,-0 -34.521,5.127 -45.231,15.381c-10.71,10.254 -16.064,24.799 -16.064,43.636Zm-2.446,-45.107l0.167,1.592l0,-1.894l-0.167,0.302Z" style="fill:#004d4c;"/></g><g transform="matrix(0.041049,0,0,0.041049,-6.34136,-44.6209)"><g transform="matrix(400,0,0,400,987.033,1988.28)"><path d="M0.242,-0.7l0,0.07l-0.068,0l-0,0.56l0.068,-0l0,0.07l-0.219,0l0,-0.07l0.069,-0l-0,-0.56l-0.069,0l0,-0.07l0.219,-0Z" style="fill:#004d4b;fill-rule:nonzero;"/></g><g transform="matrix(400,0,0,400,1093.48,1988.28)"><path d="M0.506,-0.626l-0.202,0l-0,0.626l-0.082,-0l-0,-0.626l-0.202,0l0,-0.074l0.486,-0l-0,0.074Z" style="fill:#004d4b;fill-rule:nonzero;"/></g><g transform="matrix(400,0,0,400,1412.62,1988.28)"><path d="M0.059,-0.028l0,-0.097c0.011,0.01 0.024,0.019 0.04,0.026c0.015,0.008 0.032,0.015 0.049,0.02c0.017,0.006 0.034,0.01 0.051,0.013c0.017,0.003 0.033,0.004 0.048,0.004c0.051,-0 0.088,-0.009 0.113,-0.028c0.025,-0.019 0.037,-0.046 0.037,-0.081c0,-0.019 -0.004,-0.035 -0.012,-0.049c-0.008,-0.014 -0.02,-0.027 -0.034,-0.039c-0.015,-0.011 -0.032,-0.022 -0.052,-0.033c-0.02,-0.01 -0.042,-0.021 -0.065,-0.033c-0.025,-0.013 -0.047,-0.025 -0.068,-0.038c-0.022,-0.012 -0.04,-0.026 -0.056,-0.042c-0.015,-0.015 -0.028,-0.032 -0.037,-0.052c-0.008,-0.019 -0.013,-0.042 -0.013,-0.068c0,-0.032 0.007,-0.06 0.021,-0.083c0.014,-0.024 0.032,-0.043 0.055,-0.059c0.023,-0.015 0.049,-0.026 0.078,-0.034c0.029,-0.007 0.059,-0.011 0.089,-0.011c0.069,0 0.12,0.008 0.151,0.025l0,0.092c-0.041,-0.028 -0.094,-0.043 -0.159,-0.043c-0.018,0 -0.036,0.002 -0.054,0.006c-0.018,0.004 -0.034,0.01 -0.048,0.018c-0.014,0.009 -0.025,0.02 -0.034,0.033c-0.009,0.013 -0.013,0.03 -0.013,0.049c-0,0.018 0.003,0.033 0.01,0.046c0.007,0.013 0.017,0.025 0.03,0.036c0.013,0.011 0.028,0.021 0.047,0.031c0.019,0.01 0.04,0.021 0.065,0.033c0.025,0.013 0.049,0.026 0.071,0.039c0.023,0.014 0.042,0.029 0.059,0.046c0.017,0.016 0.031,0.035 0.041,0.055c0.009,0.02 0.014,0.043 0.014,0.069c0,0.035 -0.006,0.064 -0.02,0.088c-0.013,0.024 -0.032,0.043 -0.055,0.058c-0.023,0.015 -0.049,0.026 -0.079,0.033c-0.03,0.006 -0.061,0.01 -0.095,0.01c-0.011,-0 -0.024,-0.001 -0.041,-0.003c-0.016,-0.002 -0.033,-0.004 -0.049,-0.008c-0.017,-0.003 -0.033,-0.007 -0.049,-0.012c-0.015,-0.006 -0.027,-0.011 -0.036,-0.017Z" style="fill:#004d4b;fill-rule:nonzero;"/></g><g transform="matrix(400,0,0,400,1625.12,1988.28)"><path d="M0.485,-0l-0.08,-0l0,-0.079l-0.002,-0c-0.033,0.06 -0.084,0.091 -0.154,0.091c-0.119,-0 -0.179,-0.071 -0.179,-0.213l0,-0.299l0.08,0l-0,0.286c-0,0.106 0.04,0.158 0.121,0.158c0.039,0 0.071,-0.014 0.096,-0.043c0.026,-0.029 0.038,-0.066 0.038,-0.113l0,-0.288l0.08,0l0,0.5Z" style="fill:#004d4b;fill-rule:nonzero;"/></g><g transform="matrix(400,0,0,400,1851.49,1988.28)"><path d="M0.163,-0.072l-0.002,-0l0,0.302l-0.08,-0l0,-0.73l0.08,0l0,0.088l0.002,-0c0.039,-0.067 0.097,-0.1 0.173,-0.1c0.064,0 0.115,0.023 0.151,0.067c0.036,0.045 0.054,0.105 0.054,0.18c0,0.084 -0.02,0.151 -0.061,0.201c-0.041,0.051 -0.096,0.076 -0.167,0.076c-0.065,-0 -0.115,-0.028 -0.15,-0.084Zm-0.002,-0.202l0,0.07c0,0.041 0.014,0.076 0.04,0.105c0.027,0.029 0.061,0.043 0.103,0.043c0.048,0 0.086,-0.018 0.114,-0.055c0.027,-0.037 0.041,-0.089 0.041,-0.155c-0,-0.056 -0.013,-0.099 -0.039,-0.131c-0.025,-0.032 -0.06,-0.047 -0.104,-0.047c-0.047,-0 -0.084,0.016 -0.112,0.048c-0.029,0.033 -0.043,0.073 -0.043,0.122Z" style="fill:#004d4b;fill-rule:nonzero;"/></g><g transform="matrix(400,0,0,400,2086.64,1988.28)"><path d="M0.163,-0.072l-0.002,-0l0,0.302l-0.08,-0l0,-0.73l0.08,0l0,0.088l0.002,-0c0.039,-0.067 0.097,-0.1 0.173,-0.1c0.064,0 0.115,0.023 0.151,0.067c0.036,0.045 0.054,0.105 0.054,0.18c0,0.084 -0.02,0.151 -0.061,0.201c-0.041,0.051 -0.096,0.076 -0.167,0.076c-0.065,-0 -0.115,-0.028 -0.15,-0.084Zm-0.002,-0.202l0,0.07c0,0.041 0.014,0.076 0.04,0.105c0.027,0.029 0.061,0.043 0.103,0.043c0.048,0 0.086,-0.018 0.114,-0.055c0.027,-0.037 0.041,-0.089 0.041,-0.155c-0,-0.056 -0.013,-0.099 -0.039,-0.131c-0.025,-0.032 -0.06,-0.047 -0.104,-0.047c-0.047,-0 -0.084,0.016 -0.112,0.048c-0.029,0.033 -0.043,0.073 -0.043,0.122Z" style="fill:#004d4b;fill-rule:nonzero;"/></g><g transform="matrix(400,0,0,400,2321.8,1988.28)"><path d="M0.29,0.012c-0.074,-0 -0.133,-0.024 -0.177,-0.07c-0.044,-0.047 -0.066,-0.109 -0.066,-0.186c-0,-0.084 0.023,-0.15 0.069,-0.197c0.046,-0.047 0.108,-0.071 0.186,-0.071c0.074,0 0.132,0.023 0.174,0.069c0.042,0.046 0.063,0.11 0.063,0.191c0,0.08 -0.022,0.144 -0.068,0.192c-0.045,0.048 -0.105,0.072 -0.181,0.072Zm0.006,-0.456c-0.052,-0 -0.092,0.017 -0.122,0.052c-0.03,0.035 -0.045,0.083 -0.045,0.145c-0,0.059 0.015,0.106 0.045,0.14c0.031,0.034 0.071,0.051 0.122,0.051c0.052,0 0.091,-0.016 0.119,-0.05c0.028,-0.033 0.042,-0.081 0.042,-0.143c0,-0.063 -0.014,-0.111 -0.042,-0.145c-0.028,-0.033 -0.067,-0.05 -0.119,-0.05Z" style="fill:#004d4b;fill-rule:nonzero;"/></g><g transform="matrix(400,0,0,400,2556.17,1988.28)"><path d="M0.342,-0.419c-0.014,-0.011 -0.034,-0.016 -0.061,-0.016c-0.034,-0 -0.062,0.016 -0.085,0.048c-0.023,0.033 -0.035,0.076 -0.035,0.132l0,0.255l-0.08,-0l0,-0.5l0.08,0l0,0.103l0.002,0c0.011,-0.035 0.029,-0.063 0.052,-0.082c0.024,-0.02 0.05,-0.03 0.079,-0.03c0.021,0 0.037,0.002 0.048,0.007l-0,0.083Z" style="fill:#004d4b;fill-rule:nonzero;"/></g><g transform="matrix(400,0,0,400,2695.24,1988.28)"><path d="M0.313,-0.005c-0.019,0.011 -0.044,0.016 -0.075,0.016c-0.087,-0 -0.131,-0.049 -0.131,-0.147l-0,-0.296l-0.086,0l-0,-0.068l0.086,-0l-0,-0.122l0.08,-0.026l0,0.148l0.126,-0l-0,0.068l-0.126,0l0,0.282c0,0.034 0.006,0.058 0.017,0.072c0.011,0.014 0.03,0.021 0.057,0.021c0.02,0 0.037,-0.005 0.052,-0.016l-0,0.068Z" style="fill:#004d4b;fill-rule:nonzero;"/></g><path d="M1086.19,1708.2c0,-1.258 -1.02,-2.278 -2.278,-2.278l-87.5,0c-1.258,0 -2.278,1.02 -2.278,2.278l-0,28.125c-0,1.259 1.02,2.279 2.278,2.279l25.065,-0c0,-0 0,219.271 0,219.271c0,0 -25.065,0 -25.065,0c-1.258,0 -2.278,1.02 -2.278,2.279l-0,28.125c-0,1.258 1.02,2.278 2.278,2.278l87.5,-0c1.258,-0 2.278,-1.02 2.278,-2.278l0,-28.125c0,-1.259 -1.02,-2.279 -2.278,-2.279l-25.066,0c0,0 0,-219.271 0,-219.271c0,-0 25.066,-0 25.066,-0c1.258,-0 2.278,-1.02 2.278,-2.279l0,-28.125Zm-2.278,0l-0,28.125l-27.344,0l0,223.829l27.344,-0l-0,28.125l-87.5,-0l-0,-28.125l27.344,-0l-0,-223.829l-27.344,0l-0,-28.125l87.5,0Z" style="fill:#004d4b;"/><path d="M1295.82,1740.17c1.258,0 2.278,-1.02 2.278,-2.278l0,-29.688c0,-1.258 -1.02,-2.278 -2.278,-2.278l-194.336,0c-1.258,0 -2.278,1.02 -2.278,2.278l-0,29.688c-0,1.258 1.02,2.278 2.278,2.278l78.386,0c-0,0 -0,248.113 -0,248.113c-0,1.258 1.02,2.278 2.278,2.278l32.813,-0c1.258,-0 2.278,-1.02 2.278,-2.278l-0,-248.113c-0,0 78.581,0 78.581,0Zm-0,-2.278l-80.859,-0l-0,250.391l-32.813,-0l0,-250.391l-80.664,-0l-0,-29.688l194.336,0l-0,29.688Z" style="fill:#004d4b;"/><path d="M1433.97,1976.95c0,0.756 0.374,1.462 0.999,1.886c3.788,2.57 8.82,4.917 15.11,7.014c6.139,2.047 12.642,3.764 19.508,5.15c6.839,1.381 13.547,2.433 20.123,3.156c6.61,0.727 12.162,1.088 16.656,1.088c13.455,0 26.25,-1.354 38.386,-4.058c12.263,-2.733 23.09,-7.172 32.488,-13.304c9.489,-6.192 17.027,-14.234 22.614,-24.128c5.577,-9.878 8.399,-21.932 8.399,-36.179c0,-10.795 -2.075,-20.373 -6.191,-28.74c-4.082,-8.299 -9.601,-15.864 -16.562,-22.691c-6.889,-6.756 -14.902,-12.919 -24.043,-18.483c-9.04,-5.503 -18.604,-10.744 -28.692,-15.722c-0,-0 -0.001,-0 -0.001,-0.001c-9.738,-4.804 -18.34,-9.218 -25.805,-13.243c-7.341,-3.958 -13.568,-8.039 -18.675,-12.252c-4.949,-4.083 -8.702,-8.59 -11.238,-13.54c-2.519,-4.915 -3.753,-10.757 -3.753,-17.515c-0,-7.186 1.609,-13.285 4.897,-18.278c3.329,-5.055 7.647,-9.184 12.948,-12.39c5.39,-3.259 11.535,-5.602 18.428,-7.043c7.006,-1.465 14.012,-2.198 21.019,-2.198c25.377,-0 46.178,5.559 62.374,16.782c0.696,0.482 1.604,0.538 2.354,0.145c0.751,-0.393 1.222,-1.171 1.222,-2.018l-0,-36.914c-0,-0.846 -0.469,-1.623 -1.218,-2.017c-12.855,-6.759 -33.317,-10.222 -61.412,-10.222c-12.302,-0 -24.373,1.521 -36.212,4.564c-11.917,3.062 -22.534,7.728 -31.855,13.986c-9.399,6.311 -16.986,14.335 -22.76,24.07c-5.795,9.771 -8.717,21.254 -8.717,34.463c-0,10.783 1.874,20.181 5.581,28.202c3.696,7.997 8.769,15.155 15.22,21.472c6.371,6.238 13.866,11.947 22.493,17.123c8.507,5.105 17.669,10.144 27.486,15.118c9.232,4.681 17.847,9.134 25.844,13.361c7.874,4.16 14.693,8.51 20.454,13.055c5.623,4.436 10.035,9.333 13.221,14.706c3.124,5.267 4.662,11.459 4.662,18.564c-0,13.259 -4.64,23.444 -14.032,30.503c-9.653,7.256 -24.287,10.774 -43.846,10.774c-5.743,-0 -11.996,-0.578 -18.759,-1.726c-6.8,-1.155 -13.568,-2.791 -20.304,-4.908c-6.715,-2.11 -13.111,-4.7 -19.187,-7.77c-5.997,-3.03 -11.145,-6.434 -15.438,-10.222c-0.672,-0.592 -1.628,-0.737 -2.445,-0.368c-0.816,0.368 -1.341,1.181 -1.341,2.077l0,38.671Zm2.279,0l-0,-38.671c4.427,3.906 9.733,7.421 15.918,10.546c6.184,3.125 12.695,5.762 19.531,7.911c6.836,2.148 13.704,3.808 20.605,4.98c6.901,1.172 13.282,1.758 19.141,1.758c20.182,-0 35.254,-3.744 45.215,-11.231c9.961,-7.487 14.941,-18.261 14.941,-32.324c0,-7.552 -1.66,-14.127 -4.98,-19.726c-3.321,-5.599 -7.91,-10.71 -13.77,-15.332c-5.859,-4.623 -12.793,-9.05 -20.801,-13.282c-8.007,-4.231 -16.634,-8.691 -25.879,-13.379c-9.765,-4.948 -18.88,-9.961 -27.343,-15.039c-8.464,-5.078 -15.821,-10.677 -22.071,-16.797c-6.25,-6.119 -11.165,-13.053 -14.746,-20.8c-3.58,-7.748 -5.371,-16.83 -5.371,-27.246c0,-12.761 2.8,-23.861 8.399,-33.301c5.599,-9.44 12.955,-17.22 22.07,-23.34c9.115,-6.12 19.499,-10.677 31.152,-13.672c11.654,-2.995 23.535,-4.492 35.645,-4.492c27.604,-0 47.721,3.32 60.351,9.961l0,36.914c-16.536,-11.458 -37.76,-17.188 -63.671,-17.188c-7.162,0 -14.323,0.749 -21.485,2.247c-7.161,1.497 -13.542,3.938 -19.14,7.324c-5.599,3.385 -10.157,7.747 -13.672,13.086c-3.516,5.338 -5.274,11.849 -5.274,19.531c0,7.161 1.335,13.346 4.004,18.555c2.669,5.208 6.608,9.961 11.817,14.257c5.208,4.297 11.556,8.464 19.042,12.5c7.487,4.037 16.114,8.464 25.879,13.282c10.026,4.948 19.532,10.156 28.516,15.625c8.984,5.468 16.862,11.523 23.633,18.164c6.771,6.64 12.142,13.997 16.113,22.07c3.971,8.073 5.957,17.318 5.957,27.734c0,13.802 -2.702,25.489 -8.105,35.059c-5.404,9.57 -12.696,17.35 -21.875,23.34c-9.18,5.989 -19.759,10.319 -31.739,12.988c-11.979,2.669 -24.609,4.004 -37.89,4.004c-4.427,0 -9.896,-0.358 -16.406,-1.074c-6.511,-0.716 -13.152,-1.758 -19.922,-3.125c-6.771,-1.367 -13.184,-3.06 -19.239,-5.078c-6.054,-2.019 -10.905,-4.265 -14.55,-6.739Z" style="fill:#004d4b;"/><path d="M1784.95,1963.59l-0,24.694c-0,1.258 1.02,2.278 2.278,2.278l32.031,-0c1.259,-0 2.279,-1.02 2.279,-2.278l-0,-200c-0,-1.259 -1.02,-2.279 -2.279,-2.279l-32.031,0c-1.258,0 -2.278,1.02 -2.278,2.279l-0,115.234c-0,17.994 -4.821,32.578 -14.573,43.714c-9.641,11.01 -21.93,16.508 -36.86,16.508c-12.284,-0 -22.133,-3.146 -29.503,-9.565c-11.236,-9.786 -16.656,-26.975 -16.656,-51.438l0,-114.453c0,-1.259 -1.02,-2.279 -2.278,-2.279l-31.836,0c-1.258,0 -2.279,1.02 -2.279,2.279l0,119.531c0,29.051 6.212,50.806 18.405,65.332c12.311,14.665 30.736,22.102 55.358,22.102c26.429,0 46.502,-10.556 60.222,-31.659Zm0.966,-5.994l0.007,0.02l-0.011,-0.011c-13.295,23.577 -33.69,35.366 -61.184,35.366c-47.656,0 -71.484,-28.385 -71.484,-85.156l-0,-119.531l31.836,-0l-0,114.453c-0,42.187 16.146,63.281 48.437,63.281c15.625,-0 28.483,-5.762 38.574,-17.285c10.092,-11.524 15.137,-26.595 15.137,-45.215l0,-115.234l32.031,-0l0,200l-32.031,-0l0,-31.641l-0.781,-0c-0.175,0.32 -0.352,0.637 -0.531,0.953Z" style="fill:#004d4b;"/><path d="M1918.22,1816.82l0,-28.542c0,-1.259 -1.02,-2.279 -2.278,-2.279l-32.031,0c-1.258,0 -2.278,1.02 -2.278,2.279l-0,291.992c-0,1.258 1.02,2.278 2.278,2.278l32.031,0c1.258,0 2.278,-1.02 2.278,-2.278l0,-114.603c14.268,19.723 33.759,29.576 58.464,29.576c29.012,0 51.857,-10.365 68.568,-31.021c16.571,-20.481 24.922,-47.735 24.922,-81.804c-0,-30.685 -7.441,-55.139 -22.186,-73.404c-14.883,-18.436 -35.576,-27.702 -62.124,-27.702c-29.047,-0 -51.598,11.831 -67.644,35.508Zm-1.497,142.551l-0.781,0l0,120.899l-32.031,-0l-0,-291.992l32.031,-0l0,35.156l0.781,-0c15.756,-26.563 38.802,-39.844 69.141,-39.844c25.781,0 45.898,8.952 60.352,26.856c14.453,17.903 21.679,41.894 21.679,71.972c0,33.464 -8.138,60.254 -24.414,80.371c-16.276,20.117 -38.542,30.176 -66.797,30.176c-25.911,0 -45.898,-11.198 -59.961,-33.594Zm-0.781,-80.664l0,27.93c0,16.536 5.371,30.566 16.113,42.09c10.743,11.523 24.382,17.285 40.918,17.285c19.401,-0 34.603,-7.422 45.606,-22.266c11.002,-14.843 16.504,-35.481 16.504,-61.914c-0,-22.265 -5.144,-39.713 -15.43,-52.344c-10.286,-12.63 -24.219,-18.945 -41.797,-18.945c-18.62,0 -33.594,6.478 -44.922,19.434c-11.328,12.955 -16.992,29.199 -16.992,48.73Zm2.278,0c0,-18.925 5.453,-34.677 16.429,-47.231c10.893,-12.457 25.304,-18.655 43.207,-18.655c16.829,0 30.182,6.014 40.03,18.106c10,12.278 14.918,29.262 14.918,50.905c0,25.844 -5.298,46.044 -16.055,60.558c-10.559,14.244 -25.158,21.344 -43.776,21.344c-15.86,-0 -28.948,-5.509 -39.251,-16.561c-10.344,-11.096 -15.502,-24.612 -15.502,-40.536c0,-0 0,-27.93 0,-27.93Z" style="fill:#004d4b;"/><path d="M2153.37,1816.82l-0,-28.542c-0,-1.259 -1.02,-2.279 -2.279,-2.279l-32.031,0c-1.258,0 -2.278,1.02 -2.278,2.279l-0,291.992c-0,1.258 1.02,2.278 2.278,2.278l32.031,0c1.259,0 2.279,-1.02 2.279,-2.278l-0,-114.603c14.267,19.723 33.759,29.576 58.464,29.576c29.011,0 51.856,-10.365 68.568,-31.021c16.57,-20.481 24.921,-47.735 24.921,-81.804c-0,-30.685 -7.441,-55.139 -22.185,-73.404c-14.883,-18.436 -35.577,-27.702 -62.125,-27.702c-29.046,-0 -51.598,11.831 -67.643,35.508Zm-1.497,142.551l-0.782,0l0,120.899l-32.031,-0l0,-291.992l32.031,-0l0,35.156l0.782,-0c15.755,-26.563 38.802,-39.844 69.14,-39.844c25.781,0 45.899,8.952 60.352,26.856c14.453,17.903 21.679,41.894 21.679,71.972c0,33.464 -8.138,60.254 -24.414,80.371c-16.276,20.117 -38.541,30.176 -66.796,30.176c-25.912,0 -45.899,-11.198 -59.961,-33.594Zm-0.782,-80.664l0,27.93c0,16.536 5.371,30.566 16.114,42.09c10.742,11.523 24.381,17.285 40.918,17.285c19.401,-0 34.602,-7.422 45.605,-22.266c11.003,-14.843 16.504,-35.481 16.504,-61.914c-0,-22.265 -5.143,-39.713 -15.43,-52.344c-10.286,-12.63 -24.218,-18.945 -41.797,-18.945c-18.619,0 -33.593,6.478 -44.921,19.434c-11.329,12.955 -16.993,29.199 -16.993,48.73Zm2.279,0c-0,-18.925 5.452,-34.677 16.429,-47.231c10.892,-12.457 25.303,-18.655 43.206,-18.655c16.829,0 30.183,6.014 40.031,18.106c9.999,12.278 14.918,29.262 14.918,50.905c-0,25.844 -5.299,46.044 -16.056,60.558c-10.559,14.244 -25.158,21.344 -43.775,21.344c-15.86,-0 -28.949,-5.509 -39.252,-16.561c-10.344,-11.096 -15.501,-24.612 -15.501,-40.536c-0,-0 -0,-27.93 -0,-27.93Z" style="fill:#004d4b;"/><path d="M2437.81,1995.25c31.042,0 55.768,-9.876 74.22,-29.527c18.405,-19.602 27.668,-45.661 27.668,-78.22c-0,-33.217 -8.618,-59.167 -25.692,-77.902c-17.142,-18.809 -40.96,-28.282 -71.508,-28.282c-31.946,-0 -57.28,9.71 -76.048,29.01c-18.736,19.268 -28.184,46.016 -28.184,80.299c0,31.518 9.067,56.798 27.087,75.881c18.061,19.127 42.2,28.741 72.457,28.741Zm0,-2.278c-29.557,0 -53.157,-9.342 -70.801,-28.027c-17.643,-18.685 -26.465,-43.457 -26.465,-74.317c0,-33.593 9.18,-59.83 27.54,-78.711c18.359,-18.88 43.164,-28.32 74.414,-28.32c29.817,0 53.092,9.18 69.824,27.539c16.732,18.359 25.097,43.815 25.097,76.367c0,31.901 -9.016,57.455 -27.05,76.66c-18.034,19.206 -42.22,28.809 -72.559,28.809Zm2.344,-182.422c-20.573,0 -36.849,6.999 -48.828,20.996c-11.979,13.998 -17.969,33.301 -17.969,57.91c-0,23.698 6.055,42.383 18.164,56.055c12.109,13.672 28.32,20.508 48.633,20.508c20.703,-0 36.621,-6.706 47.754,-20.117c11.133,-13.412 16.699,-32.487 16.699,-57.227c-0,-25 -5.566,-44.271 -16.699,-57.812c-11.133,-13.542 -27.051,-20.313 -47.754,-20.313Zm-0,2.278c19.927,0 35.278,6.447 45.994,19.481c10.849,13.197 16.181,32.003 16.181,56.366c-0,24.099 -5.33,42.707 -16.174,55.772c-10.717,12.91 -26.071,19.294 -46.001,19.294c-19.593,-0 -35.247,-6.553 -46.927,-19.74c-11.778,-13.298 -17.592,-31.496 -17.592,-54.545c0,-23.969 5.754,-42.795 17.422,-56.428c11.549,-13.496 27.261,-20.2 47.097,-20.2Z" style="fill:#004d4b;"/><path d="M2622.91,1819.24l-0,-30.958c-0,-1.259 -1.02,-2.279 -2.278,-2.279l-32.032,0c-1.258,0 -2.278,1.02 -2.278,2.279l0,200c0,1.258 1.02,2.278 2.278,2.278l32.032,-0c1.258,-0 2.278,-1.02 2.278,-2.278l-0,-101.954c-0,-21.699 4.401,-38.849 13.347,-51.412c8.693,-12.208 19.474,-18.38 32.421,-18.38c9.932,0 17.56,1.928 22.832,5.975c0.688,0.528 1.617,0.619 2.395,0.236c0.778,-0.384 1.271,-1.176 1.271,-2.044l-0,-33.203c-0,-0.923 -0.558,-1.755 -1.411,-2.106c-4.63,-1.907 -11.294,-2.906 -20.008,-2.906c-12.127,-0 -23.101,4.107 -32.911,12.35c-7.441,6.252 -13.428,14.381 -17.936,24.402Zm69.987,1.463c-5.599,-4.296 -13.672,-6.445 -24.219,-6.445c-13.671,0 -25.097,6.445 -34.277,19.336c-9.18,12.891 -13.769,30.469 -13.769,52.734l-0,101.954l-32.032,-0l0,-200l32.032,-0l-0,41.21l0.781,0c4.557,-14.062 11.523,-25.032 20.898,-32.91c9.375,-7.877 19.857,-11.816 31.446,-11.816c8.333,-0 14.713,0.911 19.14,2.734l0,33.203Z" style="fill:#004d4b;"/><path d="M2821.53,1988.32c0.726,-0.401 1.178,-1.165 1.178,-1.995l-0,-27.343c-0,-0.865 -0.49,-1.655 -1.263,-2.04c-0.774,-0.385 -1.699,-0.299 -2.389,0.222c-5.473,4.135 -11.985,6.18 -19.525,6.18c-9.689,-0 -16.687,-2.471 -20.873,-7.734c-4.327,-5.439 -6.341,-14.56 -6.341,-27.292l-0,-110.417c-0,-0 48.112,-0 48.112,-0c1.259,-0 2.279,-1.02 2.279,-2.279l-0,-27.343c-0,-1.259 -1.02,-2.279 -2.279,-2.279l-48.112,0c-0,0 -0,-56.901 -0,-56.901c-0,-0.729 -0.349,-1.414 -0.938,-1.842c-0.589,-0.429 -1.348,-0.55 -2.041,-0.326l-32.031,10.352c-0.941,0.303 -1.578,1.179 -1.578,2.167l0,46.55c0,0 -32.097,0 -32.097,0c-1.258,0 -2.278,1.02 -2.278,2.279l0,27.343c0,1.259 1.02,2.279 2.278,2.279l32.097,-0c0,-0 0,116.081 0,116.081c0,20.223 4.65,35.355 13.717,45.466c9.143,10.196 22.815,15.406 41.1,15.406c12.83,-0 23.151,-2.212 30.984,-6.534Zm-1.101,-1.995c-7.552,4.167 -17.513,6.25 -29.883,6.25c-35.026,0 -52.539,-19.531 -52.539,-58.593l0,-118.36l-34.375,0l0,-27.343l34.375,-0l0,-48.829l32.032,-10.351l-0,59.18l50.39,-0l0,27.343l-50.39,0l-0,112.696c-0,13.411 2.278,22.981 6.836,28.711c4.557,5.729 12.109,8.593 22.656,8.593c8.073,0 15.039,-2.213 20.898,-6.64l0,27.343Z" style="fill:#004d4b;"/></g></svg>